<svg id="visual" viewBox="0 0 960 540" width="960" height="540" xmlns="http://www.w3.org/2000/svg" xmlns:xlink="http://www.w3.org/1999/xlink" version="1.1"><rect x="0" y="0" width="960" height="540" fill="#4CC5BD"></rect><g transform="translate(22.439999888309956 -87.35015571054151)"><path d="M355.1 -562.9C471.9 -547.6 586.2 -476.1 645.5 -372.9C704.7 -269.7 708.9 -134.8 630.8 -45.1C552.7 44.7 392.4 89.3 308.6 150C224.7 210.6 217.4 287.2 178.7 392.2C140 497.2 70 630.6 -55 725.8C-180 821.1 -360 878.2 -435.9 794.7C-511.8 711.2 -483.7 487.1 -553.5 331.2C-623.4 175.3 -791.2 87.7 -715.3 43.8C-639.3 0 -319.7 0 -238.8 -136.8C-158 -273.7 -316 -547.3 -316 -630C-316 -712.7 -158 -604.3 -19.4 -570.7C119.2 -537.1 238.3 -578.1 355.1 -562.9" fill="#00e5d4"></path></g></svg>