<svg id="visual" viewBox="0 0 960 540" width="960" height="540" xmlns="http://www.w3.org/2000/svg" xmlns:xlink="http://www.w3.org/1999/xlink" version="1.1"><rect x="0" y="0" width="960" height="540" fill="#4CC5BD"></rect><g transform="translate(-37.88553530799555 14.851310011306452)"><path d="M190.2 -377.4C246.1 -297.2 290.6 -245.3 307.2 -187.2C323.8 -129 312.4 -64.5 330.3 10.3C348.2 85.2 395.4 170.3 369.5 212.5C343.7 254.6 244.8 253.8 171.1 316.3C97.3 378.9 48.7 505 -7 517.1C-62.7 529.2 -125.3 427.4 -190.9 360.1C-256.4 292.8 -324.8 259.9 -293.5 205.6C-262.1 151.3 -131.1 75.7 -70.6 34.9C-10.1 -5.8 -20.2 -11.7 -41.5 -48.6C-62.9 -85.6 -95.4 -153.6 -90.4 -263.2C-85.3 -372.8 -42.7 -523.9 12.2 -545.1C67.2 -566.3 134.3 -457.7 190.2 -377.4" fill="#08dcc4"></path></g></svg>