<svg width="21" height="22" viewBox="0 0 21 22" fill="none" xmlns="http://www.w3.org/2000/svg">
<path d="M18.75 0.816162H2.25C1.65326 0.816162 1.08097 1.05322 0.65901 1.47517C0.237053 1.89713 0 2.46942 0 3.06616L0 19.5662C0 20.1629 0.237053 20.7352 0.65901 21.1572C1.08097 21.5791 1.65326 21.8162 2.25 21.8162H8.68359V14.6766H5.73047V11.3162H8.68359V8.75491C8.68359 5.84163 10.418 4.23241 13.0744 4.23241C14.3466 4.23241 15.6769 4.45929 15.6769 4.45929V7.31866H14.2111C12.7669 7.31866 12.3164 8.21491 12.3164 9.13413V11.3162H15.5405L15.0248 14.6766H12.3164V21.8162H18.75C19.3467 21.8162 19.919 21.5791 20.341 21.1572C20.7629 20.7352 21 20.1629 21 19.5662V3.06616C21 2.46942 20.7629 1.89713 20.341 1.47517C19.919 1.05322 19.3467 0.816162 18.75 0.816162Z" fill="white"/>
</svg>
