<svg width="21" height="22" viewBox="0 0 21 22" fill="none" xmlns="http://www.w3.org/2000/svg">
<path d="M10.5048 5.92544C7.52354 5.92544 5.11885 8.33013 5.11885 11.3114C5.11885 14.2926 7.52354 16.6973 10.5048 16.6973C13.486 16.6973 15.8907 14.2926 15.8907 11.3114C15.8907 8.33013 13.486 5.92544 10.5048 5.92544ZM10.5048 14.8129C8.57822 14.8129 7.00322 13.2426 7.00322 11.3114C7.00322 9.38013 8.57353 7.80981 10.5048 7.80981C12.436 7.80981 14.0063 9.38013 14.0063 11.3114C14.0063 13.2426 12.4313 14.8129 10.5048 14.8129ZM17.3673 5.70513C17.3673 6.40356 16.8048 6.96138 16.111 6.96138C15.4126 6.96138 14.8548 6.39888 14.8548 5.70513C14.8548 5.01138 15.4173 4.44888 16.111 4.44888C16.8048 4.44888 17.3673 5.01138 17.3673 5.70513ZM20.9345 6.98013C20.8548 5.29731 20.4704 3.80669 19.2376 2.57856C18.0095 1.35044 16.5188 0.966064 14.836 0.881689C13.1017 0.783252 7.90322 0.783252 6.16885 0.881689C4.49072 0.961377 3.0001 1.34575 1.76729 2.57388C0.534473 3.802 0.154785 5.29263 0.0704102 6.97544C-0.0280273 8.70981 -0.0280273 13.9083 0.0704102 15.6426C0.150098 17.3254 0.534473 18.8161 1.76729 20.0442C3.0001 21.2723 4.48604 21.6567 6.16885 21.7411C7.90322 21.8395 13.1017 21.8395 14.836 21.7411C16.5188 21.6614 18.0095 21.277 19.2376 20.0442C20.4657 18.8161 20.8501 17.3254 20.9345 15.6426C21.0329 13.9083 21.0329 8.7145 20.9345 6.98013ZM18.6938 17.5036C18.3282 18.4223 17.6204 19.1301 16.697 19.5004C15.3142 20.0489 12.0329 19.9223 10.5048 19.9223C8.97666 19.9223 5.69072 20.0442 4.3126 19.5004C3.39385 19.1348 2.68604 18.427 2.31572 17.5036C1.76729 16.1208 1.89385 12.8395 1.89385 11.3114C1.89385 9.78325 1.77197 6.49731 2.31572 5.11919C2.68135 4.20044 3.38916 3.49263 4.3126 3.12231C5.69541 2.57388 8.97666 2.70044 10.5048 2.70044C12.0329 2.70044 15.3188 2.57856 16.697 3.12231C17.6157 3.48794 18.3235 4.19575 18.6938 5.11919C19.2423 6.502 19.1157 9.78325 19.1157 11.3114C19.1157 12.8395 19.2423 16.1254 18.6938 17.5036Z" fill="white"/>
</svg>
