<svg width="21" height="22" viewBox="0 0 21 22" fill="none" xmlns="http://www.w3.org/2000/svg">
<path d="M19.5 0.816162H1.49531C0.670312 0.816162 0 1.49585 0 2.33022V20.3021C0 21.1365 0.670312 21.8162 1.49531 21.8162H19.5C20.325 21.8162 21 21.1365 21 20.3021V2.33022C21 1.49585 20.325 0.816162 19.5 0.816162ZM6.34687 18.8162H3.23438V8.79429H6.35156V18.8162H6.34687ZM4.79062 7.42554C3.79219 7.42554 2.98594 6.6146 2.98594 5.62085C2.98594 4.6271 3.79219 3.81616 4.79062 3.81616C5.78437 3.81616 6.59531 4.6271 6.59531 5.62085C6.59531 6.61929 5.78906 7.42554 4.79062 7.42554ZM18.0141 18.8162H14.9016V13.9412C14.9016 12.7787 14.8781 11.2833 13.2844 11.2833C11.6625 11.2833 11.4141 12.549 11.4141 13.8568V18.8162H8.30156V8.79429H11.2875V10.163H11.3297C11.7469 9.37554 12.7641 8.54585 14.2781 8.54585C17.4281 8.54585 18.0141 10.6224 18.0141 13.3224V18.8162Z" fill="white"/>
</svg>
