<svg width="1267" height="421" viewBox="0 0 1267 421" fill="none" xmlns="http://www.w3.org/2000/svg">
<path d="M493.31 1233C441.881 1233 384.511 1229.71 318.983 1223.05C258.673 1216.91 196.299 1208.56 135.988 1200.56C121.127 1198.59 106.257 1196.62 91.3791 1194.65C21.7509 1185.5 -59.9821 1175.32 -138.271 1169.16C-210.244 1163.5 -276.368 1161.49 -334.787 1163.11C-384.621 1164.52 -431.489 1168.63 -474.094 1175.34C-543.049 1186.2 -579.21 1199.26 -579.568 1199.4L-581 1199.92L-580.668 1198.43C-580.591 1198.12 -573.456 1166.54 -558.265 1114.63C-540.986 1055.66 -516.964 986.524 -490.598 919.983C-477.606 887.198 -462.774 851.457 -443.926 807.519C-435.549 787.974 -427.025 768.247 -418.352 748.339C-410.51 730.237 -402.647 712.044 -394.765 693.76C-359.013 610.57 -329.979 538.073 -305.948 472.128C-288.899 425.268 -273.623 379.925 -258.867 336.081C-251.562 314.372 -244.657 293.864 -237.778 273.885C-215.316 208.672 -197.713 164.999 -180.664 132.29C-161.177 94.8535 -142.644 73.3915 -133.327 63.9428C-121.529 51.9807 -113.337 46.5364 -113.252 46.4768C-113.166 46.4171 -93.6454 31.9246 -54.5349 17.6962C-30.2021 8.90896 -4.82135 3.3491 20.9581 1.15882C53.8713 -1.69539 91.3961 0.749854 129.475 8.19635C218.71 25.6709 321.822 73.7238 412.796 116.128C461.471 138.808 509.123 160.602 556.51 177.838C603.796 195.006 648.26 206.261 688.64 211.262C756.998 219.706 833.889 211.049 923.703 184.85C960.188 174.183 994.892 162.894 1028.46 151.972C1062.87 140.776 1095.37 130.203 1125.75 121.657C1237.07 90.3208 1315.46 84.3568 1321.24 83.9137C1322.34 82.7209 1327.27 77.6174 1336.52 70.844C1341.81 66.9759 1347.65 63.3549 1354.47 63.0823C1361.85 62.8097 1370.01 69.1486 1375.15 79.2703C1378.56 85.9841 1381.5 94.6064 1384.16 105.682C1387.37 119.668 1389.8 133.822 1391.43 148.078C1393.47 164.658 1395.18 183.734 1396.63 206.389C1397.91 226.351 1398.99 248.87 1400.04 277.258C1400.73 296.216 1401.31 315.752 1401.89 334.641C1402.84 366.463 1403.83 399.393 1405.35 431.3C1406.65 458.607 1408.13 480.674 1410.01 500.739C1412.06 522.669 1414.58 541.592 1417.68 558.598C1423.94 592.772 1431.97 620.581 1442.23 643.611C1451.43 664.229 1464.66 679.915 1480.48 688.988C1492.1 695.634 1505.66 699.749 1518.78 703.736C1522.95 705.006 1527.11 706.293 1531.21 707.605C1552.1 714.421 1569.09 723.554 1581.71 734.69C1596.4 747.674 1608.86 765.66 1618.74 788.144C1629.77 813.27 1635.65 838.498 1639.11 855.291C1648.49 901.06 1649.99 930.769 1650 931.068V931.817L1649.26 931.928C1648.97 931.928 1620.23 936.026 1570.64 945.023C1495.75 958.604 1425.19 974.579 1354.97 993.869C1269.88 1017.23 1165.51 1052.52 1044.73 1098.74C1033.64 1103 1022.5 1107.28 1011.34 1111.58C912.451 1149.66 810.242 1189.02 705.306 1211.27C645.419 1223.86 584.511 1230.99 523.333 1232.57C513.535 1232.85 503.528 1232.99 493.31 1233ZM-294.44 1160.9C-246.439 1160.9 -194.056 1163.11 -138.143 1167.51C-59.8201 1173.67 21.947 1183.86 91.6007 1193.01C106.467 1194.96 121.337 1196.93 136.209 1198.92C196.512 1206.95 258.869 1215.25 319.145 1221.39C397.639 1229.38 464.395 1232.46 523.265 1230.95C584.341 1229.37 645.147 1222.24 704.931 1209.65C809.782 1187.39 911.931 1148.05 1010.74 1109.96C1021.91 1105.66 1033.04 1101.38 1044.15 1097.12C1164.96 1050.88 1269.39 1015.58 1354.52 992.199C1424.83 972.901 1495.43 956.909 1570.36 943.319C1615.54 935.123 1643.44 931.025 1648.3 930.326C1648.01 925.436 1646.04 897.166 1637.48 855.555C1634.07 838.838 1628.18 813.721 1617.21 788.741C1607.43 766.478 1595.11 748.697 1580.6 735.865C1568.16 724.883 1551.36 715.878 1530.69 709.121C1526.6 707.775 1522.45 706.523 1518.29 705.253C1505.08 701.249 1491.43 697.099 1479.65 690.36C1463.52 681.116 1450.05 665.158 1440.71 644.216C1430.38 621.118 1422.32 593.198 1416.04 558.922C1412.92 541.882 1410.4 522.899 1408.36 500.917C1406.48 480.827 1404.95 458.743 1403.69 431.403C1402.18 399.461 1401.19 366.548 1400.23 334.717C1399.66 315.829 1399.08 296.301 1398.39 277.344C1397.36 248.972 1396.28 226.471 1394.98 206.517C1393.52 183.896 1391.83 164.854 1389.79 148.308C1388.17 134.112 1385.75 120.018 1382.56 106.091C1379.92 95.1602 1377.01 86.6487 1373.68 80.0627C1368.93 70.6907 1361.63 64.7267 1354.97 64.7267H1354.54C1348.17 64.9823 1342.61 68.4584 1337.49 72.1732C1327.26 79.6452 1322.29 85.2003 1322.25 85.2599L1322.02 85.5155H1321.68C1320.89 85.5666 1241.14 90.8661 1126.23 123.191C1095.88 131.711 1063.39 142.301 1029 153.497C995.42 164.419 960.7 175.717 924.147 186.384C834.12 212.685 756.998 221.316 688.419 212.881C647.885 207.863 603.293 196.591 555.897 179.372C508.5 162.153 460.806 140.333 412.105 117.627C321.208 75.2659 218.19 27.2727 129.16 9.82367C91.2256 2.41126 53.8627 0.00861311 21.103 2.82022C-4.53076 4.99353 -29.7684 10.5191 -53.9637 19.2553C-92.844 33.39 -112.109 47.7207 -112.306 47.84C-112.502 47.9593 -120.515 53.2417 -132.185 65.0845C-141.434 74.4565 -159.847 95.7566 -179.231 133.032C-196.212 165.672 -213.781 209.269 -236.218 274.413C-243.097 294.375 -249.993 314.883 -257.307 336.609C-272.063 380.453 -287.322 425.797 -304.397 472.682C-328.419 538.653 -357.487 611.175 -393.248 694.39C-401.096 712.657 -408.958 730.85 -416.835 748.969C-425.462 768.849 -433.986 788.576 -442.409 808.149C-461.248 852.087 -476.072 887.811 -489.063 920.614C-515.404 987.07 -539.417 1056.18 -556.68 1115.12C-570.02 1160.71 -577.138 1190.59 -578.715 1197.35C-571.367 1194.85 -535.854 1183.4 -474.358 1173.71C-431.685 1167 -384.74 1162.88 -334.838 1161.47C-321.744 1161.09 -308.278 1160.9 -294.44 1160.9Z" fill="white" fill-opacity="0.25"/>
<path d="M680.726 254C642.194 254 601.446 248.263 559.564 236.923C507.419 222.809 455.818 201.039 416.699 183.64C391.602 172.479 366.599 160.978 342.415 149.86C265.999 114.714 193.812 81.5111 125.572 61.71C84.4401 49.8277 44.3911 42.6389 9.74675 41.0348C-18.811 39.7107 -46.2435 41.8156 -71.792 47.2815C-113.563 56.2187 -134.943 68.8055 -135.148 68.9243L-136 67.5069C-135.787 67.3796 -114.202 54.6655 -72.1329 45.6604C-46.448 40.169 -18.8621 38.0642 9.8405 39.3797C44.5957 40.9923 84.7811 48.1642 126.049 60.1059C194.409 79.9409 266.647 113.169 343.131 148.375C367.307 159.493 392.301 170.993 417.389 182.146C456.458 199.52 507.981 221.264 560.016 235.345C605.325 247.601 649.176 253.262 690.444 252.235C773.926 250.062 856.471 218.82 927.371 189.742L941.863 183.801C1011.95 154.986 1078.16 127.784 1136.59 109.791C1185.06 94.7747 1234.61 83.4259 1284.79 75.8415C1319.44 70.7491 1339.68 69.3571 1339.89 69.3402L1340 70.9952C1339.8 70.9952 1319.61 72.3532 1285.04 77.4711C1234.94 85.0392 1185.47 96.3595 1137.08 111.336C1078.72 129.286 1012.54 156.497 942.485 185.295L927.993 191.236C856.999 220.39 774.241 251.674 690.495 253.839C687.25 253.946 683.993 254 680.726 254Z" fill="white" fill-opacity="0.25"/>
<path d="M622.474 292.999C601.806 293.002 581.17 291.383 560.755 288.158C518.839 281.501 473.939 268.214 419.432 246.343C378.095 229.748 336.691 210.546 296.676 191.991C287.367 187.678 278.069 183.379 268.783 179.095C224.13 158.554 171.856 135.175 122.6 117.532C77.7517 101.491 36.3812 90.4959 -0.369003 84.8791C-31.0581 80.1913 -61.5084 78.9129 -88.4637 81.163C-133.201 84.9217 -157.088 95.303 -157.327 95.4053L-158 93.8882C-157.761 93.7774 -133.653 83.2938 -88.6086 79.5095C-61.517 77.2338 -30.9132 78.5293 -0.113266 83.2341C36.7392 88.8765 78.2121 99.8885 123.163 115.972C172.47 133.632 224.795 157.028 269.473 177.586C278.765 181.854 288.063 186.152 297.366 190.482C337.432 209.037 378.777 228.223 420.122 244.8C474.502 266.628 519.299 279.882 561.088 286.522C604.044 293.34 648.603 292.914 689.956 285.345C764.641 271.615 835.456 236.158 903.927 201.86C912.691 197.48 921.426 193.124 930.132 188.794C1013.76 147.371 1086.8 117.421 1147.03 99.8885C1197.14 85.3684 1248.34 74.9107 1300.14 68.6168C1335.88 64.1762 1356.7 63.017 1356.91 63L1357 64.662C1356.8 64.662 1336.02 65.8297 1300.34 70.2703C1248.64 76.5474 1197.52 86.9853 1147.5 101.482C1087.35 119.015 1014.44 148.897 930.771 190.32C922.065 194.627 913.336 198.98 904.583 203.378C835.985 237.726 765.059 273.268 690.144 287.007C667.814 291.037 645.165 293.043 622.474 292.999Z" fill="white" fill-opacity="0.25"/>
<path d="M636.58 339.396C633.067 339.396 629.574 339.337 626.1 339.221C583.958 337.791 538.269 328.4 486.509 310.516C436.769 293.329 388.786 271.495 335.713 246.801L319.187 239.111C272.594 217.399 228.584 196.881 185.863 179.442C137.914 159.84 94.3993 145.322 56.5126 136.288C23.4012 128.371 -9.28384 123.828 -37.9952 123.113C-85.8246 121.988 -112.327 129.888 -112.583 129.966L-113.035 128.345C-112.779 128.257 -86.106 120.218 -37.9269 121.421C-9.12181 122.127 23.6656 126.653 56.8963 134.614C94.8683 143.665 138.468 158.218 186.511 177.846C229.275 195.338 273.301 215.847 319.911 237.567L336.429 245.258C389.468 269.926 437.409 291.743 487.072 308.912C538.713 326.743 584.214 336.108 626.186 337.538C667.517 338.933 711.697 331.975 753.924 317.431C814.527 296.503 872.248 262.767 928.068 230.121C951.22 216.579 975.156 202.584 998.844 189.757C1075.59 148.295 1153.19 117.829 1223.38 101.636C1349.77 72.5562 1437.1 75.4773 1437.96 75.4773L1437.91 77.1689C1437.05 77.1689 1349.91 74.2391 1223.75 103.276C1153.71 119.424 1076.23 149.839 999.62 191.231C975.914 204.049 951.995 218.035 928.844 231.568C872.956 264.258 815.167 298.056 754.402 319.018C715.56 332.42 675.047 339.396 636.58 339.396Z" fill="white" fill-opacity="0.25"/>
<path d="M529.869 375C496.263 375 460.27 370.028 422.478 360.127C370.487 346.506 319.511 325.666 272.216 305.2C249.528 295.367 226.976 285.304 205.174 275.574C175.573 262.353 147.609 249.872 119.772 238.115C28.217 199.593 -55.3178 174.785 -115.465 168.307C-166.425 162.816 -195.42 167.872 -195.71 167.924L-196 166.289C-195.71 166.289 -166.51 161.181 -115.286 166.664C-55.0024 173.185 28.6943 198.035 120.394 236.626C148.222 248.348 176.212 260.863 205.821 274.058C227.623 283.789 250.141 293.852 272.855 303.676C320.09 324.108 370.956 344.906 422.862 358.518C472.134 371.424 518.321 375.936 560.084 371.935C600.347 368.062 643.082 355.522 687.078 334.673C733.571 312.623 778.514 284.615 821.981 257.534C859.56 234.106 898.433 209.86 937.844 189.845C1030.64 142.707 1114.63 125.459 1168.76 119.296C1226.07 112.792 1275.21 112.69 1311.1 112.613C1316.6 112.613 1321.84 112.613 1326.78 112.553C1363.49 112.315 1384.8 112.009 1385 112V113.703C1384.79 113.703 1363.48 114.018 1326.76 114.256C1321.82 114.256 1316.59 114.256 1311.07 114.316C1275.27 114.384 1226.15 114.486 1168.93 120.99C1114.94 127.137 1031.15 144.342 938.586 191.369C899.235 211.375 860.395 235.578 822.842 258.981C779.374 286.096 734.355 314.122 687.777 336.214C643.576 357.148 600.654 369.73 560.195 373.672C550.33 374.557 540.222 375 529.869 375Z" fill="white" fill-opacity="0.25"/>
<path d="M489.35 417.996C466.543 417.953 443.787 415.867 421.353 411.763C366.754 401.838 312.734 381.706 271.764 365.284C236.291 351.045 201.389 335.782 167.629 321.022C151.043 313.775 133.895 306.271 117.343 299.186C19.1061 257.184 -68.0509 228.415 -128.122 218.183C-182.26 208.966 -213.548 211.515 -213.855 211.541L-214 209.886C-213.693 209.886 -182.209 207.286 -127.84 216.546C-67.6844 226.778 19.6089 255.606 117.965 297.659C134.551 304.754 151.708 312.257 168.251 319.513C201.994 334.264 236.888 349.518 272.344 363.741C313.254 380.146 367.154 400.243 421.608 410.134C468.843 418.712 515.754 418.405 557.27 409.281C596.331 400.67 637.864 383.258 684.264 356.041C716.328 337.223 747.991 316.239 778.606 295.954C831.176 261.131 885.528 225.115 941.942 200.234C983.381 181.97 1025.57 169.308 1067.34 162.598C1101.36 157.149 1137.5 155.103 1177.8 156.356C1223.35 157.789 1263.21 161.779 1295.24 164.985C1310.37 166.503 1323.43 167.808 1335.15 168.686C1371.52 171.38 1392.8 171.576 1393 171.576V173.282C1392.79 173.282 1371.47 173.086 1335.04 170.383C1323.31 169.53 1310.23 168.2 1295.09 166.682C1263.09 163.476 1223.26 159.486 1177.77 158.062C1137.56 156.817 1101.53 158.846 1067.62 164.286C1025.99 170.971 983.935 183.59 942.632 201.803C886.38 226.633 832.045 262.607 779.543 297.395C748.903 317.689 717.222 338.681 685.116 357.525C638.58 384.81 596.885 402.307 557.645 410.953C535.2 415.754 512.302 418.116 489.35 417.996Z" fill="white" fill-opacity="0.25"/>
<path d="M453.7 461.998C442.259 462.004 430.825 461.435 419.441 460.294C376.549 455.929 329.217 443.971 270.475 422.662C225.597 406.381 181.649 387.714 139.141 369.661C130.857 366.138 122.619 362.643 114.426 359.177C7.32915 313.959 -80.7298 283.316 -140.103 270.659C-197.321 258.453 -230.71 258.819 -231 258.828V257.166C-230.693 257.166 -197.15 256.782 -139.728 269.031C-80.2099 281.748 7.90009 312.382 115.083 357.677C123.287 361.143 131.525 364.638 139.797 368.161C182.279 386.206 226.211 404.864 271.037 421.136C329.652 442.394 376.856 454.318 419.603 458.64C465.699 463.319 512.221 458.435 554.15 444.55C592.235 431.918 631.573 411.308 681.7 377.827C699.767 365.749 717.953 353.108 735.543 340.936C803.234 293.971 873.243 245.411 946.942 220.488C988.311 206.58 1031.63 199.327 1075.27 199H1077.18C1119.63 199 1157.59 205.205 1186.05 210.643C1217.24 216.61 1245.41 222.824 1270.27 228.304C1297.87 234.39 1321.69 239.649 1341.06 242.658C1376.65 248.173 1397.79 248.804 1398 248.812L1397.95 250.475C1397.74 250.475 1376.52 249.835 1340.8 244.295C1321.39 241.286 1297.53 236.027 1269.91 229.924C1245.06 224.443 1216.91 218.238 1185.73 212.271C1157.36 206.85 1119.49 200.662 1077.18 200.662H1075.27C1031.79 200.978 988.645 208.199 947.436 222.057C873.959 246.903 804.052 295.36 736.455 342.292C718.857 354.498 700.662 367.121 682.595 379.199C632.315 412.8 592.866 433.435 554.636 446.119C522.049 456.748 487.975 462.109 453.7 461.998Z" fill="white" fill-opacity="0.25"/>
<path d="M424.644 508C421.763 508 418.889 507.96 416.025 507.881C372.545 506.636 325.28 497.344 267.29 478.625C215.473 461.891 164.764 441.117 115.726 421.042L109.613 418.545C-10.8852 369.214 -94.4172 339.642 -153.268 325.475C-213.415 310.983 -248.65 309.636 -249 309.619L-248.94 307.965C-248.591 307.965 -213.21 309.355 -152.876 323.864C-93.9483 338.048 -10.3311 367.645 110.252 417.002L116.365 419.508C165.369 439.574 216.053 460.331 267.81 477.039C325.647 495.708 372.758 504.982 416.076 506.218C462.076 507.323 507.784 498.605 550.147 480.645C595.408 461.44 638.811 432.056 678.88 403.158L692.129 393.602C775.405 333.505 861.52 271.362 952.154 251.457C1042.19 231.748 1128.25 254.867 1193.16 277.226C1205.28 281.403 1216.93 285.444 1228.11 289.348C1277.07 306.397 1315.74 319.857 1345.14 326.429C1379.8 334.187 1400.79 335.124 1401 335.133L1400.93 336.787C1400.72 336.787 1379.62 335.84 1344.78 328.058C1315.28 321.451 1276.58 307.974 1227.57 290.917C1216.4 287.029 1204.75 282.992 1192.61 278.803C1127.91 256.52 1042.16 233.47 952.512 253.085C862.254 272.913 776.283 334.92 693.135 394.957L679.886 404.513C639.681 433.496 596.218 462.906 550.803 482.171C510.891 499.098 467.998 507.88 424.644 508Z" fill="white" fill-opacity="0.25"/>
<path d="M401.756 554C361.184 554 315.934 546.762 263.849 531.911C211.466 517.009 160.735 497.613 104.492 475.651C5.34125 436.918 -96.0677 398.585 -165.955 380.82C-228.794 364.865 -265.676 362.223 -266 362.223L-265.881 360.566C-265.514 360.566 -228.504 363.251 -165.503 379.257C-95.5649 397.005 5.89517 435.355 105.122 474.156C161.264 496.101 211.994 515.48 264.3 530.356C320.97 546.498 369.493 553.601 412.681 552.165C457.284 550.67 503.668 538.639 546.797 517.383C590.394 495.888 631.639 466.102 677.18 432.229L683.077 427.845C725.268 396.41 768.899 363.973 815.164 338.587C863.593 312.012 913.053 295.428 958.202 290.628C1048.58 281.087 1130.49 315.215 1200.16 347.941C1266.11 378.934 1314.03 400.038 1349.12 409.451C1382.94 418.525 1403.8 419.544 1404 419.553L1403.92 421.209C1403.72 421.209 1382.71 420.173 1348.69 411.057C1313.48 401.601 1265.49 380.472 1199.45 349.445C1129.99 316.812 1048.35 282.795 958.38 292.276C913.445 297.051 864.198 313.567 815.965 340.04C769.845 365.366 726.256 397.812 684.116 429.17L678.211 433.588C632.602 467.512 591.289 497.307 547.581 518.904C504.23 540.262 457.616 552.352 412.784 553.856C409.125 553.952 405.449 554 401.756 554Z" fill="white" fill-opacity="0.25"/>
<path d="M381.511 603C344.652 603 304.152 597.334 258.589 585.857C203.555 571.98 148.623 552.089 97.0838 532.903C-23.5545 487.999 -114.11 454.878 -180.899 437.615C-246.265 420.778 -284.633 417.315 -285 417.281L-284.855 415.631C-284.471 415.631 -245.983 419.136 -180.464 436.05C-113.598 453.312 -23.0004 486.45 97.672 531.338C149.177 550.506 204.066 570.372 259.015 584.231C315.762 598.533 364.599 603.8 408.312 600.277C452.64 596.704 499.345 582.275 543.272 558.589C585.894 535.566 626.027 505.372 668.53 473.391L675.751 467.963C722.422 432.885 768.377 399.372 817.495 374.827C866.767 350.231 917.556 336.814 964.372 336.04C1059.15 334.474 1140.11 379.634 1205.15 415.869L1207.47 417.162C1274.57 454.537 1321.3 476.326 1354.55 485.71C1387.97 495.137 1408.8 495.92 1409 495.92L1408.95 497.621C1408.74 497.621 1387.74 496.856 1354.1 487.369C1320.72 477.943 1273.87 456.111 1206.63 418.668L1204.31 417.383C1139.44 381.233 1058.63 336.295 964.364 337.75C917.794 338.532 867.253 351.881 818.203 376.375C769.153 400.87 723.326 434.314 676.697 469.341L669.468 474.778C626.914 506.793 586.712 537.03 544.005 560.103C499.874 583.925 452.981 598.389 408.389 602.013C399.632 602.677 390.672 603.006 381.511 603Z" fill="white" fill-opacity="0.25"/>
<path d="M365.717 652.999C331.314 652.999 293.868 648.331 252.296 638.918C195.363 626.012 139.948 607.05 88.0793 588.744L65.0643 580.6C-40.0035 543.477 -130.666 511.422 -197.273 494.538C-264.928 477.399 -304.608 473.583 -305 473.549L-304.847 471.896C-304.454 471.896 -264.664 475.755 -196.864 492.928C-130.222 509.829 -39.458 541.901 65.5757 579.033L88.5907 587.177C140.46 605.474 195.807 624.411 252.662 637.299C309.918 650.264 359.307 654.191 403.675 649.31C448.852 644.319 494.746 628.815 540.137 603.217C580.14 580.652 618.004 552.2 658.093 522.07L674.971 509.412C719.586 476.062 767.559 441.451 820.281 416.995C870.487 393.731 922.518 382.401 970.628 384.182C1063.96 387.734 1142.18 434.841 1205.04 472.697L1215.55 479.018C1248.79 498.942 1275.81 514.548 1299.68 525.98C1321.27 536.313 1342.9 544.474 1362.22 549.568C1395.76 558.401 1416.78 558.222 1417 558.222V559.926C1416.81 559.926 1395.59 560.122 1361.78 551.22C1342.35 546.109 1320.63 537.897 1298.95 527.522C1275.01 516.065 1247.95 500.433 1214.68 480.483C1211.22 478.416 1207.71 476.309 1204.16 474.162C1141.47 436.408 1063.45 389.421 970.534 385.885C922.629 384.079 870.922 395.392 820.954 418.545C768.377 442.925 720.489 477.484 675.942 510.783C670.26 515.014 664.637 519.233 659.073 523.442C618.933 553.597 581.018 582.083 540.93 604.708C495.343 630.408 449.219 645.988 403.828 651.006C391.171 652.366 378.448 653.031 365.717 652.999Z" fill="white" fill-opacity="0.25"/>
<path d="M1551.41 947.949C1551.41 947.642 1549.95 917.278 1541.95 869.671C1538.99 852.069 1533.99 825.522 1524.75 798.413C1516.32 773.638 1506.19 754.111 1493.79 738.674C1482.97 725.221 1468.66 713.694 1451.23 704.416C1446.7 701.988 1441.93 699.662 1437.32 697.405C1426.97 692.344 1416.26 687.104 1406.93 680.306C1392.55 669.818 1380.34 653.767 1371.61 633.882C1366.34 621.532 1362.03 608.787 1358.74 595.766C1354.6 579.713 1351.27 563.463 1348.75 547.076C1345.94 529.373 1343.55 509.854 1341.45 487.439C1339.55 467.196 1337.93 445.131 1336.34 417.996C1334.71 390.043 1333.38 361.511 1332.09 333.916C1331.08 312.242 1330.03 289.827 1328.85 268.255C1327.41 241.555 1325.99 220.171 1324.4 200.95C1322.65 179.771 1320.73 161.965 1318.53 146.51C1316.8 133.488 1314.34 120.574 1311.15 107.831C1308.6 97.9741 1305.78 90.4087 1302.64 84.692C1297.53 75.4483 1290.12 72.0234 1285.4 72.7646C1279.53 73.6762 1274.8 77.3907 1270.46 81.1138C1265.74 85.0425 1261.34 89.3354 1257.29 93.9528L1256 92.9049C1256.18 92.6919 1260.43 87.5205 1269.38 79.8529C1273.7 76.1469 1278.85 72.1001 1285.14 71.1203C1290.61 70.2683 1298.61 73.8807 1304.1 83.8997C1307.3 89.7356 1310.12 97.4288 1312.74 107.414C1315.95 120.22 1318.43 133.199 1320.16 146.289C1322.37 161.777 1324.29 179.617 1326.05 200.814C1327.64 220.051 1329.05 241.461 1330.51 268.17C1331.67 289.75 1332.72 312.165 1333.73 333.848C1335.02 361.434 1336.34 389.966 1337.99 417.902C1339.58 445.02 1341.2 467.069 1343.09 487.294C1345.19 509.701 1347.57 529.194 1350.38 546.863C1352.89 563.207 1356.21 579.414 1360.34 595.425C1363.6 608.366 1367.86 621.031 1373.1 633.303C1381.71 652.898 1393.73 668.736 1407.87 679.045C1417.09 685.767 1427.73 690.972 1438.02 695.999C1442.64 698.257 1447.42 700.599 1451.98 703.036C1469.58 712.408 1484.05 724.096 1495.01 737.719C1507.53 753.293 1517.76 772.999 1526.26 797.961C1535.53 825.224 1540.55 851.822 1543.52 869.526C1551.54 917.236 1552.98 947.693 1553 948L1551.41 947.949Z" fill="white" fill-opacity="0.25"/>
<path d="M1452.24 968C1452.24 967.693 1450.79 936.286 1444.31 886.13C1441.88 867.255 1437.8 838.665 1430.47 808.398C1423.65 780.209 1415.53 757.127 1405.66 737.843C1396.8 720.41 1385.13 704.545 1371.13 690.881C1366.02 685.934 1360.54 681.149 1355.23 676.518C1348.08 670.303 1340.7 663.866 1334.08 656.885C1321.31 643.348 1310.84 626.354 1303.08 606.389C1298.27 593.724 1294.32 580.751 1291.24 567.557C1287.72 552.955 1284.62 536.805 1281.77 518.176C1275.43 476.756 1271.55 430.713 1268.5 391.132C1266.88 369.796 1265.39 348.255 1263.95 327.413C1262.11 300.867 1260.39 275.794 1258.39 250.976C1256.49 227.281 1254.64 207.452 1252.73 190.339C1250.62 171.609 1248.47 156.054 1246.08 142.713C1244.25 131.708 1241.72 120.831 1238.51 110.147C1235.95 102.135 1233.33 96.1501 1230.41 91.8591C1226.03 85.4226 1219.43 83.6261 1215.16 85.1757C1209.78 87.1339 1205.66 91.3057 1202.38 94.6517C1195.06 102.05 1191.36 106.673 1191.3 106.716L1190 105.686C1190.04 105.635 1193.78 100.96 1201.17 93.4852C1204.58 90.0201 1208.84 85.695 1214.6 83.6091C1219.48 81.8467 1226.94 83.7964 1231.79 90.9311C1234.8 95.3583 1237.52 101.48 1240.1 109.662C1242.86 118.397 1245.35 129.116 1247.77 142.44C1250.19 155.765 1252.33 171.43 1254.42 190.169C1256.35 207.299 1258.2 227.154 1260.1 250.856C1262.09 275.683 1263.82 300.765 1265.66 327.311C1267.1 348.153 1268.58 369.694 1270.2 391.029C1273.21 430.576 1277.13 476.577 1283.46 517.938C1286.31 536.524 1289.43 552.632 1292.9 567.191C1295.96 580.312 1299.9 593.214 1304.68 605.81C1312.35 625.571 1322.69 642.377 1335.35 655.769C1341.91 662.691 1349.26 669.094 1356.37 675.283C1361.7 679.932 1367.22 684.734 1372.35 689.714C1386.49 703.491 1398.28 719.49 1407.24 737.077C1417.16 756.48 1425.32 779.647 1432.17 807.99C1439.52 838.342 1443.62 866.991 1446.05 885.9C1452.53 936.132 1453.98 967.634 1454 967.915L1452.24 968Z" fill="white" fill-opacity="0.25"/>
<path d="M1350.34 994C1350.34 993.676 1348.77 961.292 1343.59 908.505C1341.6 888.187 1338.3 857.268 1332.72 823.402C1327.38 791.044 1321.17 763.556 1313.74 739.449C1307.01 717.265 1298.06 695.817 1287.02 675.43C1281.56 665.518 1275.5 655.844 1269.64 646.546C1265.57 640.074 1261.37 633.381 1257.44 626.713C1246.55 608.249 1237.77 588.623 1231.25 568.204C1223.63 544.361 1217.19 515.016 1211.57 478.477C1205.6 439.757 1201.18 397.419 1197.27 357.422C1196.02 344.546 1194.8 331.773 1193.61 319.102C1190.7 288.558 1187.97 259.707 1184.87 232.066C1182.63 212.064 1180.48 195.254 1178.29 180.684C1175.99 165.357 1173.68 152.72 1171.24 142.067C1168.86 131.721 1166.44 123.597 1163.84 117.236C1161.48 111.471 1159.08 107.409 1156.5 104.803C1155.77 104.058 1154.89 103.48 1153.92 103.108C1152.95 102.736 1151.91 102.579 1150.87 102.649C1145.01 102.862 1137.55 108.525 1133.11 113.719L1124.26 124.04L1123 122.967L1131.85 112.646C1135.46 108.448 1143.5 101.278 1150.81 101.014C1152.08 100.943 1153.35 101.142 1154.53 101.599C1155.72 102.056 1156.79 102.759 1157.68 103.662C1160.42 106.421 1162.94 110.671 1165.35 116.631C1167.98 123.078 1170.46 131.286 1172.83 141.726C1175.28 152.422 1177.6 165.093 1179.9 180.463C1182.1 195.05 1184.25 211.876 1186.49 231.905C1189.59 259.563 1192.33 288.421 1195.23 318.966C1196.43 331.603 1197.65 344.376 1198.9 357.285C1202.81 397.257 1207.24 439.57 1213.18 478.255C1218.79 514.701 1225.2 543.969 1232.78 567.727C1239.25 588.029 1247.98 607.54 1258.81 625.896C1262.72 632.546 1266.92 639.231 1270.99 645.685C1276.86 655.052 1282.92 664.7 1288.41 674.638C1299.53 695.118 1308.55 716.669 1315.33 738.963C1322.79 763.139 1329.02 790.669 1334.37 823.13C1338.63 848.948 1342.08 876.027 1345.25 908.343C1350.44 961.139 1351.98 993.6 1352 993.923L1350.34 994Z" fill="white" fill-opacity="0.25"/>
<path d="M1248.31 1025C1248.31 1024.67 1246.52 991.687 1242.14 936.9C1240.44 915.248 1237.61 882.174 1233.33 845.076C1229.07 808.421 1224.4 776.394 1218.97 747.292C1213.77 719.105 1207.12 691.207 1199.04 663.71C1193.2 644.104 1186.54 625.188 1180.11 606.878C1178.86 603.343 1177.63 599.82 1176.4 596.308C1170.11 578.296 1162 554.078 1155.09 526.484C1148.59 500.468 1142.78 470.632 1137.34 435.273C1131.85 399.599 1127.25 362.117 1122.63 323.646L1121.3 312.564C1117.23 278.544 1113.38 246.407 1109.1 217.279C1106.77 201.355 1104.55 188.074 1102.34 176.677C1100.08 165.067 1097.86 155.664 1095.57 147.958C1091.46 134.166 1087.45 126.647 1082.95 124.277C1077.12 121.251 1069.9 130.159 1065.57 135.487L1064.79 136.45C1062.76 139.039 1060.51 141.444 1058.06 143.636L1057 142.358C1059.36 140.227 1061.54 137.896 1063.5 135.393L1064.28 134.438C1068.92 128.719 1076.72 119.154 1083.72 122.811C1088.72 125.428 1092.86 133.04 1097.15 147.481C1099.47 155.247 1101.7 164.692 1103.97 176.361C1106.2 187.784 1108.42 201.082 1110.79 217.04C1115.05 246.193 1118.92 278.339 1123 312.368L1124.33 323.45C1128.95 361.904 1133.54 399.377 1139.02 435.018C1144.45 470.334 1150.26 500.127 1156.74 526.084C1163.63 553.618 1171.73 577.784 1178 595.771C1179.23 599.283 1180.46 602.803 1181.71 606.332C1188.15 624.668 1194.81 643.618 1200.66 663.241C1208.76 690.793 1215.43 718.748 1220.63 746.994C1226.07 776.139 1230.78 808.165 1235.02 844.896C1239.28 882.02 1242.09 915.112 1243.83 936.772C1248.22 991.593 1249.98 1024.57 1250 1024.91L1248.31 1025Z" fill="white" fill-opacity="0.25"/>
<path d="M1145.39 1060C1145.39 1059.68 1143.3 1026.83 1139.22 971.365C1137.52 948.661 1134.91 913.991 1131.45 875.187C1127.83 834.893 1124.11 799.132 1120.04 765.868C1115.66 729.886 1110.65 695.42 1105.16 663.426C1099.7 631.594 1093.56 601.314 1088.29 575.899L1086.54 567.47C1081.52 543.334 1076.34 518.38 1071.59 492.94C1066.34 464.816 1061.21 433.717 1056.3 400.547C1052.46 374.408 1048.84 347.707 1045.34 321.832L1042.49 300.764C1038.52 271.625 1034.28 241.012 1029.75 215.129C1025.55 191.266 1021.97 175.985 1018.14 165.621C1015.21 157.721 1011.85 152.999 1008.89 152.692C1004.76 152.317 1001.76 156.161 999.147 159.596C998.256 160.851 997.265 162.031 996.182 163.124C993.438 165.63 991.085 165.442 991 165.434L991.161 163.78C991.229 163.78 992.861 163.874 995.061 161.888C996.071 160.866 996.998 159.763 997.83 158.59C1000.57 154.994 1003.97 150.536 1009.06 151.039C1013.75 151.533 1017.43 158.931 1019.7 165.05C1023.61 175.644 1027.11 190.533 1031.38 214.839C1035.92 240.748 1040.18 271.387 1044.12 300.543L1046.98 321.602C1050.48 347.451 1054.09 374.169 1057.93 400.3C1062.8 433.452 1067.93 464.509 1073.18 492.633C1077.92 518.056 1083.11 543.002 1088.13 567.129L1089.88 575.558C1095.16 600.99 1101.3 631.288 1106.76 663.145C1112.25 695.165 1117.27 729.621 1121.66 765.663C1125.72 798.902 1129.45 834.697 1133.06 875.043C1136.53 913.854 1139.16 948.533 1140.83 971.246C1144.92 1026.71 1146.98 1059.56 1147 1059.88L1145.39 1060Z" fill="white" fill-opacity="0.25"/>
<path d="M1044.36 1097C1044.36 1097 1042.06 1065.43 1037.91 1010.26C1035.85 982.848 1033.35 949.851 1030.39 913.021C1026.94 870.135 1023.67 832.044 1020.39 796.569C1016.59 755.421 1012.58 715.959 1008.51 679.274C1004.74 645.544 1000.53 610.963 995.646 573.554C991.868 544.645 987.912 515.243 984.092 486.811C979.558 453.107 974.871 418.253 970.508 384.447L967.91 364.26C964.87 340.565 961.967 318.172 959.089 296.623C954.963 266.113 951.957 246.096 949.02 229.709C945.946 212.605 943.518 202.35 940.878 195.443C938.823 190.068 936.633 188.117 935.444 188.075C933.822 188.183 932.257 188.715 930.902 189.617C929.578 190.366 928.355 191.073 927.226 190.392C926.341 189.807 925.593 189.035 925.036 188.13C924.479 187.225 924.125 186.209 924 185.153L925.647 185C925.753 185.799 926.026 186.567 926.449 187.253C926.872 187.938 927.435 188.526 928.101 188.978C928.364 189.148 929.357 188.586 930.087 188.169C931.698 187.111 933.563 186.508 935.487 186.422C937.915 186.499 940.369 189.489 942.423 194.855C945.097 201.865 947.56 212.197 950.641 229.419C953.587 245.832 956.584 265.866 960.727 296.401C963.631 317.959 966.509 340.343 969.548 364.048L972.146 384.234C976.502 418.04 981.188 452.886 985.73 486.59C989.559 515.021 993.507 544.432 997.285 573.332C1002.17 610.758 1006.38 645.348 1010.15 679.086C1014.26 715.78 1018.26 755.259 1022.03 796.416C1025.31 831.9 1028.58 869.99 1032.03 912.885C1034.99 949.723 1037.49 982.729 1039.55 1010.13C1043.7 1065.31 1046 1096.88 1046 1096.88L1044.36 1097Z" fill="white" fill-opacity="0.25"/>
<path d="M946.368 1135C946.368 1135 943.993 1105.1 939.833 1052.38L938.244 1032.2C934.331 982.623 928.983 914.733 922.867 839.354C919.151 793.841 915.708 752.713 912.359 713.601C908.942 674.124 905.456 634.17 901.894 594.854C898.844 561.216 895.632 526.522 892.061 488.79C888.985 456.266 885.97 424.782 883.056 394.863C879.81 361.488 877.393 337.366 875.24 316.64C872.796 293.258 870.891 276.209 869.26 263.016C867.722 250.768 866.475 242.435 865.338 236.783C864.822 233.918 864.035 231.108 862.989 228.39C861.408 224.394 860.307 220.226 859.709 215.972C858.581 208.737 858 203.204 858 203.153L859.657 203C859.657 203.051 860.204 208.533 861.315 215.717C861.896 219.839 862.963 223.879 864.493 227.752C865.583 230.571 866.401 233.486 866.936 236.46C868.081 242.154 869.336 250.521 870.883 262.803C872.54 276.039 874.454 293.097 876.863 316.495C879.024 337.221 881.433 361.344 884.688 394.727C887.61 424.654 890.617 456.139 893.692 488.662C897.263 526.395 900.476 561.097 903.525 594.735C907.088 634.051 910.608 674.005 913.991 713.491C917.348 752.594 920.782 793.731 924.498 839.243C930.649 914.631 936.006 982.521 939.876 1032.08L941.465 1052.27C945.625 1105.04 948 1134.9 948 1134.9L946.368 1135Z" fill="white" fill-opacity="0.25"/>
<path d="M849.297 1170C849.203 1168.88 840.405 1055.53 827.628 888.141C824.051 841.321 820.936 799.638 818.095 760.708C814.92 717.253 811.941 675.196 809.246 635.61C806.627 597.054 804.162 559.274 801.92 523.343C799.789 488.903 797.915 457.105 796.357 428.816C794.774 399.94 793.585 376.134 792.746 356.034C791.89 336.437 791.437 320.844 791.265 308.319C791.128 298.308 791.197 289.574 791.471 282.297C791.608 278.744 791.787 275.481 791.958 272.49C792.061 270.633 792.164 268.861 792.241 267.148C792.66 258.423 792.609 247.909 792.095 235.009C791.582 222.108 791.009 213.196 791 213.111L792.712 213C792.712 213.094 793.285 221.972 793.798 234.949C794.312 247.926 794.363 258.448 793.953 267.225C793.867 268.929 793.773 270.718 793.67 272.584C793.499 275.592 793.319 278.821 793.182 282.357C792.908 289.591 792.84 298.316 792.968 308.294C793.14 320.836 793.627 336.411 794.449 356.009C795.305 376.1 796.477 399.898 798.069 428.774C799.618 457.053 801.492 488.852 803.632 523.283C805.865 559.215 808.33 596.986 810.957 635.541C813.644 675.128 816.623 717.211 819.798 760.631C822.639 799.562 825.788 841.244 829.331 888.064C842.108 1055.44 850.914 1168.79 851 1169.91L849.297 1170Z" fill="white" fill-opacity="0.25"/>
<path d="M753.286 1199C753.226 1197.97 747.098 1093.95 736.573 937.443C734.139 901.311 731.285 858.413 728.543 814.281C725.697 768.445 723.4 727.626 721.421 689.492C719.338 648.784 717.667 610.471 716.458 575.608C715.25 540.932 714.479 509.034 714.17 480.808C713.861 453.792 713.973 429.69 714.504 409.2C714.967 391.206 715.798 374.814 716.964 360.484C717.984 347.951 719.329 336.518 720.512 326.405C721.532 317.697 722.501 309.476 723.083 301.876C724.343 286.055 724.695 268.436 724.18 246.429C723.735 227.507 723.04 215.213 723.032 215.094L724.746 215C724.746 215.119 725.44 227.439 725.894 246.395C726.409 268.453 726.057 286.123 724.789 302.004C724.18 309.672 723.212 317.876 722.218 326.592C721.026 336.671 719.647 348.087 718.67 360.594C717.504 374.891 716.681 391.266 716.218 409.217C715.687 429.664 715.576 453.767 715.876 480.783C716.193 509 716.964 540.881 718.172 575.557C719.381 610.403 721.044 648.716 723.126 689.407C725.08 727.533 727.411 768.351 730.257 814.179C732.999 858.311 735.853 901.2 738.279 937.332C748.804 1093.84 754.94 1197.87 755 1198.89L753.286 1199Z" fill="white" fill-opacity="0.25"/>
<path d="M654.407 1219.98C654.407 1219.05 653.297 1124.39 646.9 980.989L645.44 947.591C644.264 921.268 643.029 893.837 641.837 865.648C639.851 818.926 638.433 780.832 637.374 745.746C636.123 704.378 635.38 667.715 635.114 633.669C634.838 599.146 635.064 567.18 635.789 538.65C636.465 512.097 637.616 487.214 639.192 464.693C640.444 446.844 642.087 428.892 644.197 409.755C644.87 403.703 645.543 397.761 646.216 391.931C648.877 368.711 651.387 346.752 652.522 326.422C653.231 313.584 653.606 299.809 653.648 285.454C653.648 273.376 653.489 260.632 653.064 246.499C652.313 221.778 651.396 206.256 651.396 206.102L653.014 206C653.014 206.162 653.948 221.719 654.682 246.447C655.107 260.598 655.291 273.358 655.266 285.463C655.266 299.835 654.849 313.653 654.132 326.516C653.006 346.974 650.486 368.881 647.826 392.152C647.158 397.988 646.483 403.93 645.799 409.976C643.672 429.071 642.028 447.023 640.794 464.847C639.217 487.342 638.075 512.199 637.399 538.726C636.673 567.231 636.448 599.18 636.715 633.686C636.99 667.724 637.724 704.378 638.976 745.729C640.043 780.806 641.478 818.892 643.446 865.605C644.639 893.795 645.865 921.226 647.05 947.549L648.543 980.946C654.899 1124.38 655.992 1219.06 656 1220L654.407 1219.98Z" fill="white" fill-opacity="0.25"/>
<path d="M553.661 1230L552 1229.88C552.06 1229.03 558.174 1142.94 557.721 1012.82C557.618 982.766 557.292 951.075 556.941 917.519C556.53 877.629 556.085 836.385 556.016 794.4C555.931 753.863 556.213 718.477 556.873 686.224C557.558 652.456 558.722 620.459 560.298 591.126C561.737 564.953 563.664 538.575 566.019 512.717C567.894 492.188 569.932 473.107 571.902 454.64L572.544 448.577C577.494 402.148 580.063 367.86 580.885 337.43C581.348 320.401 581.416 302.137 581.082 283.15C580.826 267.824 580.32 251.834 579.541 234.268C578.231 204.562 576.972 186.298 576.972 186.119L578.685 186C578.685 186.187 579.952 204.468 581.254 234.192C582.033 251.774 582.538 267.781 582.795 283.116C583.121 302.137 583.061 320.418 582.598 337.472C581.742 367.954 579.173 402.276 574.249 448.756L573.606 454.818C571.637 473.269 569.598 492.35 567.723 512.87C565.368 538.703 563.441 565.064 562.011 591.203C560.41 620.51 559.245 652.507 558.585 686.241C557.926 718.485 557.643 753.855 557.729 794.375C557.815 836.351 558.243 877.595 558.654 917.485C559.005 951.041 559.331 982.74 559.433 1012.8C559.81 1143 553.73 1229.15 553.661 1230Z" fill="white" fill-opacity="0.25"/>
<path d="M441.636 1231L440 1230.69C440.153 1229.9 455.334 1150.46 463.001 1031.55C466.332 980.061 468.615 922.25 471.035 861.048L472.287 829.528C473.991 787.102 475.447 755.036 477.015 725.594C478.787 692.489 480.857 660.329 483.157 630.001C485.773 595.669 488.788 563.151 491.676 531.699C493.644 510.529 495.501 490.543 497.111 471.213C501.243 421.913 503.339 375.177 503.347 332.351C503.347 284.329 501.294 241.256 499.514 209.096C497.64 175.557 496.106 155.324 496.106 155.128L497.759 155C497.759 155.204 499.275 175.446 501.166 209.003C502.955 241.188 505.008 284.286 505 332.351C505 375.271 502.896 422.049 498.773 471.392C497.154 490.722 495.297 510.716 493.329 531.878C490.415 563.322 487.366 595.839 484.81 630.154C482.501 660.465 480.44 692.617 478.668 725.705C477.092 755.173 475.635 787.23 473.931 829.638L472.687 861.159C470.268 922.378 467.985 980.205 464.654 1031.71C456.961 1150.68 441.781 1230.22 441.636 1231Z" fill="white" fill-opacity="0.25"/>
<path d="M318.571 1222L317 1221.46C317.255 1220.71 342.481 1145.52 360.318 1034.63C368.234 985.394 375.505 925.576 383.251 846.341C387.082 806.92 390.802 766.595 394.403 727.591C396.832 701.248 399.245 675.126 401.665 649.549L402.761 637.979C408.205 580.427 413.353 526.079 416.538 474.397C419.85 420.569 421.006 365.564 419.995 310.909C419.01 258.717 416.487 211.917 414.143 173.032C412.002 137.419 410.507 116.332 410.49 116.128L412.138 116C412.138 116.213 413.658 137.3 415.799 172.93C418.143 211.84 420.666 258.657 421.643 310.875C422.662 365.581 421.498 420.628 418.194 474.457C415.009 526.147 409.862 580.512 404.409 638.039L403.313 649.609C400.892 675.168 398.48 701.307 396.051 727.659C392.45 766.655 388.729 806.979 384.899 846.409C377.195 925.644 369.916 985.531 361.966 1034.8C344.12 1145.93 318.818 1221.25 318.571 1222Z" fill="white" fill-opacity="0.25"/>
<path d="M180.499 1206L179 1205.28C179.349 1204.54 214.638 1130.38 244.475 1023.36C258.904 971.538 271.962 911.339 283.29 844.419C293.384 784.952 302.574 719.097 310.7 648.677C318.706 579.219 324.141 515.297 326.832 458.7C329.524 402.103 330.035 340.831 328.365 276.364C325.291 158.298 319.448 75.9369 319.388 75.1192L321.04 75C321.108 75.8517 326.952 158.213 330.026 276.321C331.73 340.822 331.185 402.214 328.493 458.777C325.802 515.34 320.359 579.372 312.31 648.864C304.175 719.344 294.951 785.241 284.883 844.76C273.546 911.73 260.48 971.99 246.034 1023.86C216.197 1130.98 180.848 1205.26 180.499 1206Z" fill="white" fill-opacity="0.25"/>
<path d="M29.4777 1186L28 1185.24C28.1104 1185.04 38.522 1164.81 55.1075 1130.96C72.7716 1094.93 93.5947 1051.11 114.044 999.21C154.621 896.181 188.777 760.42 207.638 626.857C216.98 560.662 223.366 492.722 226.551 424.919C230.075 349.946 229.531 278.83 228.818 231.853C227.026 114.536 225.183 37.7663 225.166 37H226.822C226.822 37.7663 228.682 114.545 230.474 231.87C231.187 278.864 231.731 350.022 228.207 425.038C225.013 492.893 218.644 560.884 209.277 627.129C190.356 760.812 156.209 896.675 115.581 999.857C95.1148 1051.8 74.2747 1095.67 56.5937 1131.73C39.9997 1165.51 29.5796 1185.8 29.4777 1186Z" fill="white" fill-opacity="0.25"/>
<path d="M-132.516 1169L-134 1168.25C-133.881 1168.03 -122.503 1145.49 -103.194 1108.47C-100.022 1102.39 -96.6471 1095.95 -93.0707 1089.14C-75.6721 1055.93 -54.0177 1014.7 -31.7834 968.282C-2.35075 906.834 22.1096 846.714 40.9325 789.61C61.7511 726.408 78.6294 658.931 91.1069 589.062C102.578 524.744 110.953 454.244 115.977 379.512C120.625 310.477 122.177 245.632 123.542 188.425L123.61 185.743C125.137 121.715 126.493 81.1384 128.053 54.1613C129.674 25.8473 131.337 10.1533 131.354 10L133 10.1788C133 10.3321 131.294 25.9836 129.708 54.255C128.164 81.215 126.8 121.774 125.264 185.785L125.205 188.468C123.84 245.692 122.288 310.554 117.64 379.623C112.608 454.415 104.224 524.974 92.7444 589.351C80.2584 659.297 63.3801 726.885 42.5103 790.129C23.6704 847.302 -0.824097 907.481 -30.2823 969.005C-52.5252 1015.44 -74.1881 1056.71 -91.5952 1089.93C-95.1602 1096.74 -98.5348 1103.18 -101.719 1109.26C-121.019 1146.25 -132.405 1168.78 -132.516 1169Z" fill="white" fill-opacity="0.25"/>
<path d="M-295.472 1162L-297 1161.34C-296.889 1161.09 -285.844 1135.49 -265.828 1093.79C-251.915 1064.83 -233.879 1029.21 -213.001 987.978C-204.986 972.137 -196.604 955.614 -188 938.513C-160.404 883.724 -128.524 818.427 -101.389 749.314C-75.0893 682.236 -53.8393 613.295 -37.8154 543.064C-11.6793 428.412 0.0401611 309.706 9.44641 214.387C11.7766 190.863 13.9703 168.635 16.2323 147.896C21.2427 101.906 27.081 61.9968 32.6804 35.4757C37.4177 13.0937 41.3355 1.11923 41.3782 1L43 1.51952C42.9573 1.63875 39.0651 13.5366 34.3534 35.8249C28.7625 62.2864 22.9327 102.153 17.9223 148.075C15.6689 168.805 13.4753 191.025 11.1535 214.557C1.76434 309.944 -9.98923 428.676 -36.1509 543.43C-52.1965 613.745 -73.4722 682.768 -99.8012 749.927C-126.962 819.074 -158.851 884.44 -186.472 939.254C-195.076 956.347 -203.458 972.886 -211.473 988.727C-232.351 1029.95 -250.378 1065.55 -264.283 1094.5C-284.325 1136.17 -295.361 1161.74 -295.472 1162Z" fill="white" fill-opacity="0.25"/>
</svg>
